<svg

        viewBox="0 0 25 25"
        fill="none"
        xmlns="http://www.w3.org/2000/svg"
>
    <path
            d="M20.6411 9.46489C18.7926 9.48715 18.0211 8.18903 18.9209 6.57457C19.4408 5.63882 19.1099 4.45796 18.1742 3.93809L16.3952 2.94832C15.5826 2.47804 14.5444 2.77654 14.0741 3.58912L13.9641 3.78451C13.0643 5.39897 11.5528 5.41718 10.6041 3.82498L10.4894 3.63229C10.0202 2.83102 8.97502 2.55761 8.174 3.04733L6.41939 4.07966C5.49643 4.62191 5.19423 5.82061 5.73648 6.74357C6.68502 8.32555 5.94502 9.64187 4.09653 9.66414C3.03441 9.67693 2.16657 10.5556 2.17949 11.6279L2.20114 13.4253C2.21393 14.4875 3.09258 15.3553 4.16491 15.3424C6.01341 15.3201 6.78489 16.6182 5.87485 18.2328C5.35498 19.1686 5.68584 20.3494 6.62159 20.8693L8.40056 21.8591C9.21314 22.3294 10.2514 22.0309 10.7217 21.2183L10.8317 21.0229C11.7315 19.4084 13.243 19.3902 14.1916 20.9824L14.3063 21.1751C14.796 21.9761 15.8412 22.2495 16.6422 21.7598L18.3968 20.7275C19.3198 20.1852 19.622 18.9865 19.0798 18.0738C18.1312 16.4816 18.8712 15.1653 20.7197 15.143C21.7818 15.1302 22.6496 14.2516 22.6367 13.1792L22.6151 11.3818C22.5921 10.3198 21.7134 9.45197 20.6411 9.46489ZM12.443 15.7228C10.6149 15.7448 9.10589 14.2717 9.08387 12.4436C9.06185 10.6155 10.5349 9.10653 12.363 9.08452C14.1911 9.0625 15.7001 10.5356 15.7221 12.3637C15.7441 14.1917 14.271 15.7007 12.443 15.7228Z"
            fill="white"
    />
</svg>